<?xml version="1.0" encoding="UTF-8"?>
<svg id="_图层_1" data-name="图层 1" xmlns="http://www.w3.org/2000/svg" viewBox="0 0 174.47 174.47">
  <defs>
    <style>
      .cls-1 {
        fill: #fff;
        stroke-width: 0px;
      }
    </style>
  </defs>
  <path class="cls-1" d="M87.24,0C39.06,0,0,39.06,0,87.24s39.06,87.24,87.24,87.24,87.24-39.06,87.24-87.24S135.42,0,87.24,0h0ZM87.12,161.97c-41.39,0-74.95-33.55-74.95-74.95S45.73,12.08,87.12,12.08s74.95,33.55,74.95,74.95-33.55,74.95-74.95,74.95ZM85.44,125.69c1.59,1.59,1.59,4.17,0,5.76-1.59,1.59-4.17,1.59-5.76,0l-41.3-41.3c-1.59-1.59-1.59-4.17,0-5.76,1.59-1.59,4.17-1.59,5.76,0l41.3,41.3h0ZM44.14,90.09c-1.59,1.59-4.17,1.59-5.76,0-1.59-1.59-1.59-4.17,0-5.76l41.3-41.3c1.59-1.59,4.17-1.59,5.76,0s1.59,4.17,0,5.76l-41.3,41.3h0ZM131.42,81.71c3.05,0,5.53,2.47,5.53,5.52,0,3.05-2.47,5.53-5.52,5.53l-79.29.05c-3.05,0-5.53-2.47-5.53-5.52,0-3.05,2.47-5.53,5.52-5.53l79.29-.05h0Z"/>
</svg>