<?xml version="1.0" encoding="UTF-8"?>
<svg id="_图层_3" data-name="图层 3" xmlns="http://www.w3.org/2000/svg" viewBox="0 0 174.47 177.48">
  <defs>
    <style>
      .cls-1 {
        fill: #fff;
        stroke-width: 0px;
      }
    </style>
  </defs>
  <path class="cls-1" d="M163.21,72.36c-7.44-15.26-19.41-24.73-38.58-21.39-14.42,2.51-26.76-9.57-26.39-24.1.2-7.6-1.06-14.67-7.78-20.14-3.1,2.64-5.99,5.1-9.14,7.77,8.91,14.92,6.62,23.79-8.53,30.3-7.34,3.15-15.77,5.18-23.71,5.19-12.54.01-22.48,4.05-30.72,13.17C1.23,82.13-1.76,115.52,11.7,138.89c7.78,13.53,18.16,22.73,35.18,20.77,1.27-.15,2.64.5,3.96.76,11.56,2.22,23.11,4.51,34.69,6.57,1.8.32,3.79-.31,5.68-.62,12.48-2.06,24.89-4.93,37.45-6.01,12.71-1.08,23-5.74,30.12-16.1,15.79-22.97,16.29-47.55,4.42-71.9ZM34.37,138.91c-15.59-15.94-15.67-59.71,6.9-73.29-16.43,22.38-17.72,46.35-6.9,73.29ZM64.77,145.31c-17.62-18.3-14.23-67.88,6.46-80.01-16.76,25.31-17.14,51.87-6.46,80.01ZM114.62,143.18c9.14-27.17,8.66-53.25-8.05-77.75,19.9,12.43,24.41,55.45,8.05,77.75ZM144.33,135.5c8.1-24.92,7.19-48.52-9.53-69.99,19.95,11.91,25.16,49.71,9.53,69.99Z"/>
</svg>