<?xml version="1.0" encoding="UTF-8"?>
<svg id="_图层_4" data-name="图层 4" xmlns="http://www.w3.org/2000/svg" viewBox="0 0 180.9 177.48">
  <defs>
    <style>
      .cls-1 {
        fill: #fff;
        stroke-width: 0px;
      }
    </style>
  </defs>
  <path class="cls-1" d="M176.75,70.95c-6.08-10-10.22-20.47-15.26-30.74-4.78-9.74-13.6-13.82-24.09-15.53-4.01-.66-8.54-2.69-11.34-5.55-20.13-20.61-52.2-20.46-71.97.42-2.38,2.52-6.26,4.66-9.65,5.01-14.97,1.57-24.8,9.26-28.8,23.53-1.89,6.76-3.74,12.82-9.28,17.81-3.1,2.8-4.3,7.7-6.36,11.65v14.51c1.71,4.78,3.23,9.65,5.18,14.34,7.23,17.35,19.88,22.57,37.23,15.36,4.4-1.83,8.57-4.19,13.4-6.57,11.28,13.62,20.77,27.5,18.8,46.4-.41,3.94,1.05,8.08,1.64,12.13h23.6c1.1-2.9,3.4-5.92,3.11-8.68-2.08-20.4,6.66-36.21,20.01-50.3,7.09,3.02,13.73,6.48,20.76,8.69,11.88,3.73,21.83.08,28.13-10.44,7.9-13.21,13.08-28.55,4.89-42.04ZM67.96,92.46c1.68,7.29,3.15,13.63,4.62,19.98-5.53-5.26-14.99-9.72-4.62-19.98ZM114.05,104.57c-2.67,3.25-5.39,6.46-8.16,9.64-.3.35-1.05.31-2.45.66,1.93-8.14,3.75-15.86,5.65-23.87,9.18,4.8,9.99,7.44,4.96,13.57Z"/>
</svg>