<?xml version="1.0" encoding="UTF-8"?>
<svg id="_图层_2" data-name="图层 2" xmlns="http://www.w3.org/2000/svg" viewBox="0 0 174.47 177.48">
  <defs>
    <style>
      .cls-1 {
        fill: #fff;
        stroke-width: 0px;
      }
    </style>
  </defs>
  <path class="cls-1" d="M163.25,75.81c1.02,9.61-5.31,15-13.88,18.4-6.86,2.72-14.09,3.9-21.43,4.71-7.31.8-14.63,1.41-21.99,1.34-1.72-.02-1.67.65-1.43,2.02.68,3.83,3.03,7.03,4.09,10.68,2.56,8.82,5.49,17.56,7.4,26.51,1.36,6.38,2.98,12.88,1.65,19.6-1.49,7.52-5.63,12.94-13.14,15.42-11.07,3.66-22.4,4.11-33.56.44-4.3-1.42-7.68-3.67-10.02-6.69-1.64-2.11-3.05-4.91-3.77-10.48-.57-4.4-.46-8.58,2.12-22.22,2.66-14.06,4.84-20.71,5.53-23.21.49-1.79,1.91-4.16,3.91-10.01.11-.32.38-1.14-.04-1.68-.23-.31-.7-.46-1.49-.54-5.13-.5-10.28-.96-15.38-1.71-10.81-1.59-21.49-3.66-31.26-8.74-2.82-1.47-5.24-3.33-7.17-5.8-2.52-3.23-2.11-6.95-1.81-10.56.85-10.15,4.46-19.5,9.41-28.43,6.89-12.43,16.47-22.62,28.22-30.92,3.35-2.37,7.03-4.33,10.73-6.26,5.17-2.7,10.51-4.73,16.15-6.06,15.32-3.61,29.61-1.16,42.97,6.88,11.51,6.93,21.52,15.39,29.28,26.14,6.47,8.96,11.33,18.62,13.52,29.42.81,3.97,1.52,7.93,1.38,11.75ZM57.64,66.92c3.22.08,6.68.13,10.1-.59,1.13-.24,2.1-.39,2.07-1.73-.03-1.16-.06-2.32-.21-3.47-.14-1.1-.93-1.55-2.06-1.52-7.13.21-13.44,2.93-19.66,5.9-.55.26-1.25.67-.9,1.42.33.7,1.14.56,1.73.43,2.88-.63,5.8-.17,8.93-.45ZM103.43,62.99c.32.98-.67,2.72,1.42,3.06,2.29.37,4.52.98,6.92.93,4.27-.09,8.55-.2,12.81.36.59.08,1.43.32,1.66-.49.16-.56-.42-.97-.88-1.29-.39-.27-.81-.52-1.25-.7-5.49-2.22-10.76-4.96-16.98-5.14-3.24-.09-3.65-.06-3.7,3.27Z"/>
</svg>