<?xml version="1.0" encoding="UTF-8"?>
<svg id="_图层_1" data-name="图层 1" xmlns="http://www.w3.org/2000/svg" xmlns:xlink="http://www.w3.org/1999/xlink" viewBox="0 0 319.72 183.6">
  <defs>
    <style>
      .cls-1 {
        fill: url(#_新規グラデーションスウォッチ_5-2);
      }

      .cls-1, .cls-2 {
        stroke-width: 0px;
      }

      .cls-2 {
        fill: url(#_新規グラデーションスウォッチ_5);
      }
    </style>
    <linearGradient id="_新規グラデーションスウォッチ_5" data-name="新規グラデーションスウォッチ 5" x1="124.83" y1="53.42" x2="196.06" y2="53.42" gradientUnits="userSpaceOnUse">
      <stop offset="0" stop-color="#9e8766"/>
      <stop offset=".03" stop-color="#ae9773"/>
      <stop offset=".08" stop-color="#c3ae85"/>
      <stop offset=".14" stop-color="#d3be92"/>
      <stop offset=".2" stop-color="#dcc899"/>
      <stop offset=".29" stop-color="#dfcb9c"/>
      <stop offset=".61" stop-color="#bda06c"/>
      <stop offset="1" stop-color="#725639"/>
    </linearGradient>
    <linearGradient id="_新規グラデーションスウォッチ_5-2" data-name="新規グラデーションスウォッチ 5" x1="0" y1="161.24" x2="319.72" y2="161.24" xlink:href="#_新規グラデーションスウォッチ_5"/>
  </defs>
  <path class="cls-2" d="M186.63,52.59c-1.97-.94-4.12-1.45-6.29-1.51l-5.68-.08h-24.78V15.8c-.12-3.63,1.46-7.11,4.23-9.26,5.51-4.73,14.9-1.59,16.83,5.75,1.13,7.37.74,16.77,1.18,25.05.03.59.49,1.1,1.07,1.12.61.02,1.12-.48,1.14-1.12l.35-12.03c4.23-.07,8.36-.6,11.72,1.5,3.76,2.03,6.6,6.44,6.87,10.84.05.49.45.9.93.88.5-.02.89-.45.87-.97,0-2.65-1.02-5.16-2.25-7.35-1.31-2.22-3.17-4.09-5.35-5.4-4.06-2.57-8.64-2.12-12.73-2.17.11-3.64.59-7.09-.26-11.41-1.17-4.77-4.82-8.74-9.31-10.36-4.48-1.65-9.74-.9-13.61,2.08-3.92,2.85-6.31,7.94-6.23,12.86l-.07,7c-2.98,0-6.03-.38-9.29.6-3.96,1.21-7.42,4.18-9.35,8.08-4.06,7.72-1.08,19.1,7.37,22.97,2.01,1,4.23,1.4,6.46,1.49h4.49c-.1,7.96.05,16,.06,23.96,0,.41,0,.81.01,1.21-3.99.13-7.78.4-10.86-1.7-3.83-2.27-6.4-6.73-6.43-11.42-.02-.59-.48-1.09-1.05-1.09-.58,0-1.06.49-1.07,1.09-.14,5.43,2.69,10.85,7.2,13.73,2.24,1.46,4.85,2.31,7.51,2.42l4.72.09c0,2.78,0,5.56.16,8.79.58,5.1,3.66,9.79,8.03,12.09,4.35,2.34,9.7,2.32,13.95-.06,4.24-2.3,7.24-6.8,7.81-11.67,0-.05,0-.11,0-.16.31-3.13-.04-6.05-.12-8.99,3.24,0,6.4.08,10.04-.66,4.21-1.31,7.54-4.4,9.46-8.38,4.09-7.99.39-19-7.75-22.6ZM129.53,32.95c1.35-3.18,4.01-5.79,7.24-7,2.48-.98,5.47-.89,8.47-.8l-.03,3.47-.22,22.38h-3.17c-2.96,0-4.55-.29-7.18-1.32-5.16-2.02-8.16-10.2-5.1-16.73ZM191.15,73.56c-1.35,3.09-4.1,5.67-7.1,6.68-2.7.64-6.05.7-9.26.79-.15-4.55-.35-9.03-.46-13.65-.02-.6-.49-1.11-1.08-1.12-.61-.02-1.12.49-1.13,1.12-.33,8.42.46,17.44-.95,25.35-.91,7.53-9.79,11.81-15.68,7.97-2.89-1.73-5.3-4.86-5.62-8.3-.13-3.65,0-8.37,0-12.51,0-7.99.1-15.97,0-23.96l13.48-.17,11.3-.15c3.93.04,7.47-.52,10.29.92,6.12,2.5,9.21,10.75,6.21,17.02Z"/>
  <path class="cls-1" d="M11.2,183.48c-4.62,0-8.29-1.14-10.76-3.67-.32-.32-.44-.76-.44-1.2,0-1.01.63-1.72,1.65-1.72.44,0,.82.13,1.07.45,2.28,2.6,5.12,3.6,8.48,3.6,6.01,0,9.43-3.92,9.43-7.9v-.12c0-5.32-3.61-8.17-9.87-11.27l-.13-.06c-6.64-3.29-9.87-6.26-9.87-12.15,0-7.15,6.58-10.56,12.9-10.56,4.18,0,7.02.88,9.36,2.6.7.5,1.33,1.32,1.33,2.21,0,1.01-.7,1.71-1.71,1.71-.57,0-1.14-.25-1.52-.76-1.71-2.34-3.86-3.61-7.53-3.61h-.06c-4.62,0-8.61,2.66-8.61,7.53v.39c.19,4.3,3.8,6.32,9.8,9.87,5.89,3.42,10.06,6.58,10.06,13.03,0,7.78-6.58,11.7-13.6,11.64ZM80.05,178.1c-3.79,3.79-9.74,5.5-14.99,5.5-13.29,0-21.83-8.34-21.83-21.7s8.54-23.02,22.14-23.02c4.87,0,10.69,1.58,13.66,4.93.63.7,1.01,1.4,1.01,2.41,0,.88-.82,1.71-1.77,1.71-1.52,0-2.4-2.09-3.35-3.11-2.53-2.59-6.2-3.6-9.8-3.6-11.39,0-16.89,9.43-16.89,19.86s5.31,19.73,17.08,19.73c6.07,0,8.55-1.39,13.03-5.18.44-.38.89-.63,1.45-.63.83,0,1.21.57,1.21,1.2,0,.7-.44,1.46-.95,1.9ZM119.44,183.6c-13.16,0-21.89-9.36-21.89-22.39s9.24-22.33,21.89-22.33,21.83,9.87,21.83,22.33-8.73,22.39-21.83,22.39ZM119.44,141.22c-11.2,0-16.95,9.61-16.95,19.86s5.38,19.8,16.95,19.8,16.96-9.23,16.96-19.8-5.76-19.86-16.96-19.86ZM185.72,159.82c-2.66,2.34-6.45,3.48-12.72,3.48h-6.71c-.56,0-.94.25-.94.76v16.64c0,1.14-.89,2.09-2.02,2.09s-2.09-.95-2.09-2.09v-38.28c0-1.33,1.08-2.34,2.34-2.34h9.36c5.18,0,8.61.7,11.01,2.16,3.28,2.09,4.93,5.18,4.93,9.43,0,3.6-1.01,6.26-3.16,8.16ZM172.12,142.55h-4.56c-1.39,0-2.21.82-2.21,2.21v15.31c0,.5.38.76.94.76h5.76c8.23,0,12.15-2.91,12.15-9.11s-3.86-9.17-12.08-9.17ZM238.83,180.7c0,1.14-.95,2.09-2.09,2.09s-2.09-.95-2.09-2.09v-18.35c0-.56-.32-.76-.82-.76h-20.5c-.56,0-.88.25-.88.83v18.28c0,1.14-.89,2.09-2.02,2.09s-2.09-.95-2.09-2.09v-38.84c0-1.14.95-2.09,2.09-2.09s2.02.95,2.02,2.09v16.38c0,.57.25.89.82.89h20.56c.5,0,.82-.25.82-.76v-16.51c0-1.14.95-2.09,2.09-2.09s2.09.95,2.09,2.09v38.84ZM270.55,180.7c0,1.14-.89,2.09-2.02,2.09s-2.09-.95-2.09-2.09v-38.91c0-1.14.95-2.02,2.09-2.02s2.02.89,2.02,2.02v38.91ZM318.45,182.46h-12.15c-5.82,0-8.16-2.15-8.16-8.22v-32.46c0-1.14.95-2.02,2.09-2.02s2.02.89,2.02,2.02v33.47c0,3.1,1.65,4.74,4.81,4.74l11.39-.06c.7,0,1.27.56,1.27,1.26s-.57,1.27-1.27,1.27Z"/>
</svg>