<?xml version="1.0" standalone="no"?><!DOCTYPE svg PUBLIC "-//W3C//DTD SVG 1.1//EN" "http://www.w3.org/Graphics/SVG/1.1/DTD/svg11.dtd"><svg t="1747389080639" class="icon" viewBox="0 0 1024 1024" version="1.1" xmlns="http://www.w3.org/2000/svg" p-id="18451" xmlns:xlink="http://www.w3.org/1999/xlink" width="200" height="200"><path d="M634.368 349.696V66.048h40.448V25.6H350.72v40.448h40.448v283.648S107.52 754.688 107.52 876.032c0 121.344 121.344 121.344 121.344 121.344h566.784s121.344 0 121.344-121.344-282.624-526.336-282.624-526.336z m161.792 607.232H229.376c-13.312 0-80.896-4.096-80.896-80.896 0-79.36 169.472-350.72 275.968-503.296l7.168-10.24V66.048H593.92v296.448l7.168 10.24c107.008 152.576 275.968 423.936 275.968 503.296 0 74.24-61.952 80.896-80.896 80.896zM715.776 471.04H309.76C226.304 600.576 107.52 797.696 107.52 876.032c0 121.344 121.344 121.344 121.344 121.344h566.784s121.344 0 121.344-121.344c1.024-78.336-117.76-275.456-201.216-404.992z m-365.056 364.544c-22.528 0-40.448-17.92-40.448-40.448s17.92-40.448 40.448-40.448 40.448 17.92 40.448 40.448-17.92 40.448-40.448 40.448z m121.344-121.344c-44.544 0-80.896-36.352-80.896-80.896 0-44.544 36.352-80.896 80.896-80.896 44.544 0 80.896 36.352 80.896 80.896 0.512 44.544-35.84 80.896-80.896 80.896z m162.304 161.792c-44.544 0-80.896-36.352-80.896-80.896 0-44.544 36.352-80.896 80.896-80.896 44.544 0 80.896 36.352 80.896 80.896 0 44.544-36.352 80.896-80.896 80.896z" fill="#BF9D63" p-id="18452"></path></svg>